<svg xml:space="preserve" style="enable-background:new 0 0 5788 892;" viewBox="0 0 5788 892" y="0px" x="0px" xmlns:xlink="http://www.w3.org/1999/xlink" xmlns="http://www.w3.org/2000/svg" id="Layer_1" version="1.1">
<style type="text/css">
	.st0{fill:#FFFFFF;}
	.st1{fill-rule:evenodd;clip-rule:evenodd;}
</style>
<g>
	<path d="M243.1,132.2c170.4,0,340.9,0,511.3,0c0,170.4,0,340.9,0,511.3c-170.4,0-340.9,0-511.3,0
		C243.1,473.1,243.1,302.6,243.1,132.2z M315,580.4c-0.4-2.7-0.3-304.2,0.2-305.9c0.7,0,1.6,0,2.4,0c16.6,0,33.2,0,49.9,0
		c20.4,0,40.7,0,61.1,0c2.7,0,2.9-0.3,2.9-2.9c0-4,0-8,0-12.1c0-3.7-0.1-3.8-3.7-3.8c-42.7,0-85.4,0-128.1,0c-0.3,0-0.7,0-1,0
		c-2.1,0-2.5,0.4-2.6,2.5c0,0.3,0,0.5,0,0.8c0,112.3,0,224.6,0,337c0,0.5,0,1.1,0,1.6c0.1,1,0.7,1.6,1.7,1.7c0.5,0,1,0,1.4,0
		c112.7,0,225.3,0,338,0c0.5,0,1,0,1.4,0c0.9-0.1,1.5-0.6,1.6-1.5c0.2-1.7,0.5-3.5,0.5-5.2c0-21,0-42.1,0-63.1c0-19.6,0-39.2,0-58.9
		c0-2.6-0.3-2.8-2.8-2.8c-4.2,0-8.3,0-12.5,0c-3.5,0-3.5,0-3.5,3.5c0,35.5,0,71,0,106.5c0,0.9,0,1.7,0,2.7
		C519.6,580.4,417.3,580.4,315,580.4z M687.2,389.3c0,4.6,0,9.3,0,13.9c0,4.3,3.5,7.1,7.1,7c4.1-0.2,8.3-0.2,12.5,0
		c4.1,0.2,7.3-3.1,7.2-7.1c-0.2-5.7,0-11.4-0.1-17.2c-0.2-10.7-1.2-21.3-3.1-31.9c-2.1-12.2-5.4-24.2-9.7-35.8
		c-5.4-14.6-12.4-28.4-20.9-41.5c-8.1-12.4-17.4-23.9-27.9-34.3c-15.9-15.8-33.8-28.7-53.8-38.8c-19.6-9.9-40.2-16.4-61.8-19.8
		c-14.9-2.3-29.8-2.6-44.8-2.4c-3.9,0.1-6.6,2.9-6.7,6.8c-0.1,4.4-0.1,8.9,0,13.3c0.1,3.8,2.8,6.5,6.6,6.7c0.5,0,1.1,0,1.6,0
		c3.7,0,7.5,0,11.2,0c15.3,0,30.4,1.8,45.3,5.6c14.7,3.7,28.6,9.2,41.9,16.5c10.5,5.7,20.3,12.4,29.5,20.1
		c10.5,8.8,19.9,18.6,28.2,29.4c7.7,10.1,14.4,20.9,19.9,32.3c6.2,12.9,10.8,26.5,13.8,40.5C685.8,364.7,687.1,376.9,687.2,389.3z
		 M505.7,235c-4.4,0-8.9,0-13.3,0c-4.5,0.1-7.2,2.8-7.3,7.3c0,4,0.1,8,0,12.1c-0.2,4.3,3.1,7.7,7.5,7.5c4.1-0.1,8.2,0,12.3,0
		c9.1,0,18.1,0.9,27,2.8c13.6,2.9,26.4,8,38.4,15.1c13.2,7.8,24.6,17.7,34.3,29.6c8.9,10.9,15.8,22.8,20.8,35.9
		c3.2,8.4,5.5,17.1,6.8,26c1.1,7.2,1.5,14.5,1.4,21.8c0,3.4-0.1,6.8,0,10.2c0.1,4.1,2.9,6.7,6.9,6.8c4.4,0,8.9,0.1,13.3,0
		c3.6-0.1,6.3-2.6,6.6-6.2c0.1-0.6,0-1.2,0-1.8c0-3.6,0-7.2,0-10.8c0-13.1-1.5-26.1-4.7-38.8c-3.1-12.1-7.6-23.7-13.5-34.8
		c-6.2-11.7-13.8-22.4-22.7-32.1c-9.7-10.6-20.7-19.7-32.9-27.3c-11.3-7-23.3-12.5-36-16.4C536,237.3,521,235.1,505.7,235z
		 M606.8,391.8c0.2-20.1-5.1-38.9-16.1-56.1c-18.1-28.2-49.6-46.7-84.5-47c-4.8,0-9.5-0.1-14.3,0c-3.7,0.1-6.5,2.7-6.6,6.2
		c-0.1,4.8-0.1,9.5,0,14.3c0.1,3.4,2.8,6,6.2,6.2c0.7,0.1,1.5,0,2.2,0c5.8,0.1,11.6,0.1,17.4,0.4c6,0.3,11.9,1.6,17.6,3.5
		c6.2,2.1,12.1,5,17.6,8.6c6.5,4.3,12.2,9.5,17.1,15.6c5.6,7,10,14.8,12.8,23.3c1.8,5.5,3.2,11.1,3.5,17c0.3,5.9,0.3,11.8,0.4,17.8
		c0,0.7,0,1.5,0,2.2c0.3,3.6,3,6.2,6.6,6.3c4.6,0.1,9.1,0.1,13.7,0c3.4,0,5.9-2.4,6.4-5.7c0.1-0.7,0.1-1.5,0.1-2.2
		C606.8,398.8,606.8,395.5,606.8,391.8z M391.9,524.5c0.1-0.1,0.1-0.2,0.2-0.2c0.3-0.1,0.6-0.3,0.9-0.4c4.2-1.4,7.3-4.2,9.5-7.9
		c2.4-4,3.2-8.3,2.9-12.9c-0.6-9-5-15.2-13.4-18.6c-4.2-1.7-8.7-2.4-13.2-2.4c-10.9,0-21.8,0-32.7,0c-1.3,0-2.7,0.2-4,0.5
		c-3,0.7-5.1,2.6-5.9,5.7c-0.4,1.8-0.6,3.6-0.6,5.4c0,20.4,0,40.7,0,61.1c0,1.1,0,2.2,0.2,3.3c0.5,2.8,2,4.9,4.6,6.1
		c6.8,3.3,13.7-1,13.8-8.5c0-0.5,0-1.1,0-1.6c0-6.6,0-13.2,0-19.8c0-0.7,0.1-1.4,0.1-2.3c2.2,0,4.2,0,6.1,0c4.6,0,9.1-0.1,13.7,0.1
		c5.5,0.2,8.7,2.8,10.2,8.1c0.1,0.3,0.2,0.7,0.2,1c0.8,3.4,0.9,6.9,0.9,10.4c0,2.7,0.4,5.4,1.5,8c2.9,6.7,11.4,7,15.4,3.8
		c2.2-1.7,3.2-3.9,2.7-6.6c-0.2-1-0.3-2-0.6-3c-1.2-4.2-1.7-8.5-1.8-12.9c-0.1-2.6-0.4-5.3-1-7.9c-1-4.1-3.8-6.6-7.9-7.8
		C393.2,524.8,392.6,524.7,391.9,524.5z M527.1,522.8c0,9.7,0,19.3,0,29c0,1.2,0,2.5,0.2,3.7c0.5,4.7,3.2,7.4,7.9,8
		c1.2,0.2,2.4,0.2,3.7,0.2c6.8,0,13.6,0.1,20.4,0c3.3-0.1,6.6-0.2,9.8-0.7c14.5-2.4,24.4-10.4,28.5-24.7c3.2-11.1,2.9-22.2-0.4-33.2
		c-3.2-10.6-10.3-17.6-20.9-20.9c-4.7-1.5-9.6-2.1-14.5-2.1c-7.9,0-15.8,0-23.7,0c-0.6,0-1.2,0-1.8,0.1c-5.5,0.4-8.5,3.5-8.9,9
		c-0.1,1-0.1,1.9-0.1,2.9C527.1,503.6,527.1,513.2,527.1,522.8z M438.9,497c1,0,1.8,0,2.6,0c9.7,0,19.5,0,29.2,0
		c1.5,0,3-0.1,4.5-0.3c4-0.6,6.1-3,6.2-7.1c0-0.5,0-1-0.1-1.4c-0.3-2.9-2-4.9-4.8-5.7c-1.4-0.3-2.8-0.5-4.2-0.5
		c-13.8,0-27.7,0-41.5,0c-1.2,0-2.4,0.1-3.6,0.4c-3.7,0.7-5.9,3-6.6,6.7c-0.3,1.5-0.4,3-0.4,4.5c0,20.4,0,40.9,0,61.3
		c0,0.6,0,1.2,0,1.8c0.3,4.3,2.8,7.3,6.8,8.1c1.7,0.3,3.6,0.3,5.2-0.1c3.5-0.8,5.6-3.2,6.3-6.7c0.2-1.1,0.2-2.2,0.3-3.3
		c0-7.4,0-14.7,0-22.1c0-0.7,0.1-1.4,0.1-2.3c1,0,1.7,0,2.4,0c8.5,0,17,0,25.5,0c1.5,0,3-0.2,4.4-0.6c2.2-0.6,3.7-2.1,4-4.4
		c0.2-1.3,0.3-2.6,0.1-3.8c-0.4-2.8-2.1-4.5-4.9-5.1c-1.4-0.3-2.8-0.4-4.3-0.4c-8.4,0-16.8,0-25.1,0c-0.7,0-1.5,0-2.3,0
		C438.9,509.7,438.9,503.5,438.9,497z M512,410.1c15,0,27.3-12.1,27.3-26.8c0-14.8-12.5-27.2-27.2-27.2c-14.7,0-26.8,12.3-26.8,27.3
		C485.2,398.2,497.2,410.1,512,410.1z M509.8,523c0-10.6,0-21.2,0-31.8c0-1,0-1.9-0.1-2.9c-0.5-4-3.3-6.9-7.2-7.4
		c-1.3-0.2-2.6-0.2-3.9,0c-3.6,0.5-6,2.6-6.9,6.1c-0.4,1.3-0.4,2.7-0.4,4c0,21.3,0,42.6,0,63.9c0,0.7,0,1.5,0.1,2.2
		c0.3,4,2.8,7,6.7,7.7c1.6,0.3,3.4,0.3,5,0c3.9-0.8,6.3-3.7,6.7-7.7c0.1-0.8,0.1-1.6,0.1-2.4C509.8,544.1,509.8,533.5,509.8,523z" class="st0"></path>
	<path d="M315,580.4c102.3,0,204.5,0,307,0c0-1,0-1.8,0-2.7c0-35.5,0-71,0-106.5c0-3.5,0-3.5,3.5-3.5c4.2,0,8.3,0,12.5,0
		c2.5,0,2.8,0.3,2.8,2.8c0,19.6,0,39.2,0,58.9c0,21,0,42.1,0,63.1c0,1.7-0.3,3.5-0.5,5.2c-0.1,0.9-0.7,1.5-1.6,1.5c-0.5,0-1,0-1.4,0
		c-112.7,0-225.3,0-338,0c-0.5,0-1,0-1.4,0c-1,0-1.6-0.6-1.7-1.7c-0.1-0.5,0-1.1,0-1.6c0-112.3,0-224.6,0-337c0-0.3,0-0.5,0-0.8
		c0-2,0.5-2.4,2.6-2.5c0.3,0,0.7,0,1,0c42.7,0,85.4,0,128.1,0c3.6,0,3.7,0.1,3.7,3.8c0,4,0,8,0,12.1c0,2.6-0.3,2.9-2.9,2.9
		c-20.4,0-40.7,0-61.1,0c-16.6,0-33.2,0-49.9,0c-0.8,0-1.6,0-2.4,0C314.7,276.2,314.6,577.8,315,580.4z"></path>
	<path d="M687.2,389.3c-0.1-12.4-1.4-24.6-4-36.7c-3-14.1-7.6-27.6-13.8-40.5c-5.5-11.5-12.1-22.2-19.9-32.3
		c-8.3-10.9-17.8-20.7-28.2-29.4c-9.2-7.7-19-14.4-29.5-20.1c-13.3-7.2-27.2-12.8-41.9-16.5c-14.9-3.8-30-5.6-45.3-5.6
		c-3.7,0-7.5,0-11.2,0c-0.5,0-1.1,0-1.6,0c-3.8-0.2-6.5-2.9-6.6-6.7c-0.1-4.4-0.1-8.9,0-13.3c0.1-3.9,2.8-6.7,6.7-6.8
		c15-0.2,30,0,44.8,2.4c21.6,3.4,42.2,9.9,61.8,19.8c20,10.1,37.9,23,53.8,38.8c10.5,10.4,19.8,21.9,27.9,34.3
		c8.5,13.1,15.5,26.9,20.9,41.5c4.3,11.6,7.5,23.6,9.7,35.8c1.8,10.6,2.9,21.2,3.1,31.9c0.1,5.7-0.1,11.4,0.1,17.2
		c0.1,4-3.1,7.3-7.2,7.1c-4.1-0.2-8.3-0.2-12.5,0c-3.7,0.1-7.2-2.7-7.1-7C687.2,398.6,687.2,393.9,687.2,389.3z"></path>
	<path d="M505.7,235c15.3,0.1,30.3,2.3,44.9,6.9c12.7,3.9,24.7,9.4,36,16.4c12.2,7.6,23.2,16.7,32.9,27.3
		c8.9,9.7,16.5,20.4,22.7,32.1c5.9,11,10.4,22.6,13.5,34.8c3.2,12.7,4.7,25.7,4.7,38.8c0,3.6,0,7.2,0,10.8c0,0.6,0,1.2,0,1.8
		c-0.3,3.6-3,6.2-6.6,6.2c-4.4,0.1-8.9,0.1-13.3,0c-4,0-6.8-2.7-6.9-6.8c-0.1-3.4-0.1-6.8,0-10.2c0.1-7.3-0.3-14.6-1.4-21.8
		c-1.3-8.9-3.6-17.6-6.8-26c-5-13.1-11.9-25.1-20.8-35.9c-9.7-11.9-21.1-21.8-34.3-29.6c-12-7.1-24.8-12.2-38.4-15.1
		c-8.9-1.9-17.9-2.8-27-2.8c-4.1,0-8.2-0.1-12.3,0c-4.4,0.2-7.7-3.2-7.5-7.5c0.2-4,0-8,0-12.1c0-4.5,2.7-7.2,7.3-7.3
		C496.9,234.9,501.3,235,505.7,235z"></path>
	<path d="M606.8,391.8c0,3.7,0,7.1,0,10.4c0,0.7,0,1.5-0.1,2.2c-0.5,3.3-3.1,5.7-6.4,5.7c-4.6,0.1-9.1,0.1-13.7,0
		c-3.6-0.1-6.3-2.7-6.6-6.3c-0.1-0.7,0-1.5,0-2.2c-0.1-5.9-0.1-11.9-0.4-17.8c-0.3-5.8-1.6-11.4-3.5-17c-2.9-8.6-7.2-16.3-12.8-23.3
		c-4.9-6.1-10.6-11.3-17.1-15.6c-5.5-3.6-11.3-6.5-17.6-8.6c-5.7-1.9-11.5-3.3-17.6-3.5c-5.8-0.3-11.6-0.3-17.4-0.4
		c-0.7,0-1.5,0-2.2,0c-3.4-0.3-6.1-2.8-6.2-6.2c-0.1-4.8-0.1-9.5,0-14.3c0.1-3.5,3-6.1,6.6-6.2c4.8-0.1,9.5,0,14.3,0
		c34.9,0.3,66.4,18.8,84.5,47C601.7,352.9,607,371.7,606.8,391.8z"></path>
	<path d="M391.9,524.5c0.7,0.2,1.3,0.4,2,0.5c4.1,1.1,6.9,3.7,7.9,7.8c0.6,2.6,0.9,5.2,1,7.9c0.1,4.4,0.6,8.7,1.8,12.9
		c0.3,1,0.5,2,0.6,3c0.5,2.8-0.6,4.9-2.7,6.6c-4,3.2-12.5,2.9-15.4-3.8c-1.1-2.6-1.5-5.2-1.5-8c0-3.5-0.1-6.9-0.9-10.4
		c-0.1-0.3-0.1-0.7-0.2-1c-1.5-5.3-4.7-7.9-10.2-8.1c-4.6-0.1-9.1,0-13.7-0.1c-2,0-3.9,0-6.1,0c0,0.8-0.1,1.6-0.1,2.3
		c0,6.6,0,13.2,0,19.8c0,0.5,0,1.1,0,1.6c-0.1,7.5-7,11.8-13.8,8.5c-2.6-1.2-4.1-3.4-4.6-6.1c-0.2-1.1-0.2-2.2-0.2-3.3
		c0-20.4,0-40.7,0-61.1c0-1.8,0.2-3.7,0.6-5.4c0.7-3,2.8-4.9,5.9-5.7c1.3-0.3,2.7-0.5,4-0.5c10.9,0,21.8,0,32.7,0
		c4.5,0,9,0.7,13.2,2.4c8.4,3.4,12.8,9.6,13.4,18.6c0.3,4.6-0.6,8.9-2.9,12.9c-2.2,3.8-5.3,6.5-9.5,7.9c-0.3,0.1-0.6,0.2-0.9,0.4
		C392,524.3,392,524.3,391.9,524.5z M354.4,518.2c0.5,0.1,0.9,0.2,1.3,0.2c5.9,0,11.8,0.1,17.8-0.1c2.4-0.1,4.8-0.4,7-1.1
		c3.6-1,5.8-3.6,6.3-7.3c0.2-1.9,0.2-3.8-0.1-5.7c-0.5-3.6-2.7-6-6.1-6.9c-1.9-0.5-4-0.8-6-0.9c-6.2-0.1-12.4,0-18.6,0
		c-0.5,0-1,0.1-1.5,0.2C354.4,503.8,354.4,510.9,354.4,518.2z"></path>
	<path d="M527.1,522.8c0-9.6,0-19.2,0-28.8c0-1,0-1.9,0.1-2.9c0.4-5.5,3.4-8.6,8.9-9c0.6,0,1.2-0.1,1.8-0.1c7.9,0,15.8,0,23.7,0
		c4.9,0,9.8,0.6,14.5,2.1c10.6,3.3,17.7,10.3,20.9,20.9c3.4,11,3.6,22.2,0.4,33.2c-4.1,14.3-14,22.3-28.5,24.7
		c-3.2,0.5-6.5,0.7-9.8,0.7c-6.8,0.1-13.6,0-20.4,0c-1.2,0-2.5-0.1-3.7-0.2c-4.7-0.6-7.4-3.3-7.9-8c-0.1-1.2-0.1-2.4-0.2-3.7
		C527.1,542.1,527.1,532.5,527.1,522.8z M545.7,548.5c0.4,0.1,0.6,0.2,0.8,0.2c5.4,0,10.9,0.2,16.3-0.1c6.1-0.2,10.9-3,14-8.3
		c1.2-2,2.1-4.1,2.7-6.3c1.8-6,1.8-12.1,1-18.2c-0.4-3.5-1.3-6.8-3-9.9c-2.5-4.5-6.2-7.4-11.2-8.4c-1.7-0.3-3.4-0.5-5.1-0.5
		c-4.6-0.1-9.1,0-13.7,0c-0.6,0-1.2,0.1-1.8,0.2C545.7,514.4,545.7,531.4,545.7,548.5z"></path>
	<path d="M438.9,497c0,6.5,0,12.6,0,19c0.8,0,1.6,0,2.3,0c8.4,0,16.8,0,25.1,0c1.4,0,2.9,0.1,4.3,0.4c2.7,0.6,4.5,2.2,4.9,5.1
		c0.2,1.3,0.1,2.6-0.1,3.8c-0.4,2.3-1.8,3.8-4,4.4c-1.4,0.4-3,0.5-4.4,0.6c-8.5,0.1-17,0-25.5,0c-0.7,0-1.5,0-2.4,0
		c0,0.9-0.1,1.6-0.1,2.3c0,7.4,0,14.7,0,22.1c0,1.1-0.1,2.2-0.3,3.3c-0.7,3.5-2.7,6-6.3,6.7c-1.7,0.4-3.5,0.4-5.2,0.1
		c-4-0.7-6.5-3.8-6.8-8.1c0-0.6,0-1.2,0-1.8c0-20.4,0-40.9,0-61.3c0-1.5,0.1-3,0.4-4.5c0.7-3.6,2.9-5.9,6.6-6.7
		c1.2-0.2,2.4-0.4,3.6-0.4c13.8,0,27.7,0,41.5,0c1.4,0,2.9,0.2,4.2,0.5c2.9,0.7,4.5,2.7,4.8,5.7c0.1,0.5,0.1,1,0.1,1.4
		c0,4.1-2.1,6.5-6.2,7.1c-1.5,0.2-3,0.3-4.5,0.3c-9.7,0-19.5,0-29.2,0C440.7,497,439.9,497,438.9,497z"></path>
	<path d="M512,410.1c-14.8,0-26.8-12-26.8-26.7c0-14.9,12.1-27.3,26.8-27.3c14.8,0,27.2,12.5,27.2,27.2
		C539.2,398.1,526.9,410.2,512,410.1z"></path>
	<path d="M509.8,523c0,10.5,0,21.1,0,31.6c0,0.8,0,1.6-0.1,2.4c-0.3,4-2.8,7-6.7,7.7c-1.6,0.3-3.4,0.3-5,0c-3.9-0.8-6.4-3.8-6.7-7.7
		c-0.1-0.7-0.1-1.5-0.1-2.2c0-21.3,0-42.6,0-63.9c0-1.3,0.1-2.7,0.4-4c0.9-3.5,3.3-5.5,6.9-6.1c1.3-0.2,2.6-0.2,3.9,0
		c4,0.5,6.8,3.5,7.2,7.4c0.1,0.9,0.1,1.9,0.1,2.9C509.8,501.7,509.8,512.3,509.8,523z"></path>
	<path d="M354.4,518.2c0-7.2,0-14.3,0-21.6c0.5-0.1,1-0.2,1.5-0.2c6.2,0,12.4-0.1,18.6,0c2,0,4.1,0.3,6,0.9
		c3.4,1,5.6,3.3,6.1,6.9c0.3,1.9,0.3,3.8,0.1,5.7c-0.5,3.7-2.7,6.3-6.3,7.3c-2.3,0.7-4.7,1-7,1.1c-5.9,0.2-11.8,0.1-17.8,0.1
		C355.3,518.3,354.9,518.2,354.4,518.2z" class="st0"></path>
	<path d="M545.7,548.5c0-17.1,0-34.1,0-51.3c0.6-0.1,1.2-0.2,1.8-0.2c4.6,0,9.1-0.1,13.7,0c1.7,0,3.4,0.2,5.1,0.5
		c5,1,8.8,3.9,11.2,8.4c1.7,3.1,2.6,6.4,3,9.9c0.8,6.1,0.8,12.2-1,18.2c-0.7,2.2-1.6,4.4-2.7,6.3c-3.1,5.3-7.9,8-14,8.3
		c-5.4,0.2-10.9,0.1-16.3,0.1C546.3,548.7,546.1,548.6,545.7,548.5z" class="st0"></path>
</g>
<g>
	<path d="M5292.8,168.2c52.4,0,104.8,0,157.2,0c0,146.8,0,293.6,0,440.5c-146.8,0-293.6,0-440.5,0
		c0-146.8,0-293.6,0-440.5c43.4,0,86.9,0,130.4,0c-0.4,0.2-0.7,0.5-1.1,0.6c-17.3,4.4-26.3,16-26.3,33.7c0,12.7,0,25.5,0,38.2
		c0,1.5,0,3,0,4.8c-6.2,0-11.7,0-17.3,0c-20.6,0-34.2,13.6-34.2,34.1c0,98,0,196.1,0,294.1c0,20.6,13.6,34.2,34.1,34.2
		c81.2,0,162.3,0,243.5,0c33.5,0,59.1-25.4,59.1-58.9c0.1-81.6,0-163.1,0-244.7c0-4.3-0.4-8.6-1.3-12.8c-5.9-27.2-29.1-45.9-57-46.1
		c-6.2,0-12.5,0-19,0c0-2.1,0-3.6,0-5.2c0-13.5,0.1-26.9-0.1-40.4c-0.2-14.8-10.3-27.3-24.6-30.8
		C5294.7,168.9,5293.7,168.5,5292.8,168.2z" class="st0"></path>
	<path d="M5292.8,168.2c0.9,0.3,1.9,0.7,2.8,0.9c14.3,3.6,24.4,16,24.6,30.8c0.2,13.5,0,26.9,0.1,40.4c0,1.6,0,3.1,0,5.2
		c6.5,0,12.8,0,19,0c27.9,0.1,51.1,18.8,57,46.1c0.9,4.2,1.3,8.5,1.3,12.8c0.1,81.6,0.1,163.1,0,244.7c0,33.4-25.6,58.9-59.1,58.9
		c-81.2,0-162.3,0-243.5,0c-20.5,0-34.1-13.6-34.1-34.2c0-98,0-196.1,0-294.1c0-20.5,13.6-34.1,34.2-34.1c5.6,0,11.1,0,17.3,0
		c0-1.7,0-3.3,0-4.8c0-12.7,0-25.5,0-38.2c0-17.7,9.1-29.3,26.3-33.7c0.4-0.1,0.8-0.4,1.1-0.6
		C5190.9,168.2,5241.8,168.2,5292.8,168.2z M5112.2,284.2c-5.8,0-11.1,0-16.4,0c-14.5,0-22.1,7.5-22.1,21.9c0,80.4,0,160.9,0,241.3
		c0,14.3,7.6,21.9,22,21.9c80.3,0,160.6,0,240.9,0c14.7,0,22.2-7.5,22.2-22.2c0-54.2,0-108.5,0-162.7c0-1.3-0.1-2.6,0-3.9
		c0.4-3.7,3.1-6.2,6.5-6.2c3.4,0,6,2.6,6.3,6.3c0.1,1,0,2,0,3c0,54.7,0,109.4,0,164c0,2.3,0,4.6-0.4,6.8
		c-2.8,16.9-15.8,27.6-33.5,27.6c-78.6,0-157.2,0-235.8,0.1c-9.8,0-19.5,0.1-28.1-6.2c0,10.9,8.4,19,19.4,19
		c82.2,0,164.4,0.1,246.5-0.1c24.7-0.1,44.5-19.9,44.6-44.6c0.2-82.4,0.2-164.9-0.1-247.3c0-6.5-1.9-13.4-4.7-19.3
		c-9.6-20.6-35.2-30.9-59.3-24.7c0,4,0,7.9,0,12.3c6.8,0,13.3-0.1,19.9,0c16.3,0.4,30.4,12.9,31.1,29.2c0.8,18.1,0.3,36.3,0.2,54.5
		c0,4.4-4,7.3-7.9,6.2c-3.7-1.1-5-3.9-4.9-7.6c0.1-16.6,0.1-33.2,0-49.8c-0.1-9.9-6.6-18.2-16.1-19.3c-7.3-0.8-14.8-0.2-22.2-0.2
		c0,4.3,0,8.3,0,12.6c5.9,0,11.4,0,17,0c6.3,0,8.5,2.1,8.5,8.5c0,15.7,0,31.5,0,47.2c0,6.6-2.1,8.6-8.8,8.7
		c-17.9,0-35.8,0.2-53.7-0.1c-9.1-0.1-17.1,2.4-24.3,8.1c-5,4-10.2,7.8-15.4,11.6c-17.1,12.5-38,12.5-55.1,0
		c-5.5-4.1-11-8.2-16.5-12.4c-6.5-5-13.8-7.3-22-7.2c-18.5,0.1-36.9,0-55.4,0c-6.1,0-8.3-2.2-8.3-8.3c0-15.9,0-31.8,0-47.7
		c0-6.3,2.1-8.4,8.5-8.5c5.7,0,11.3,0,17,0C5112.2,292.5,5112.2,288.5,5112.2,284.2z M5204.7,181.1c-0.2,0.9-0.3,1.3-0.3,1.7
		c0,63.2,0,126.5-0.1,189.7c0,2.4,1,3.2,3.1,3.7c10,2.7,19.3,1.2,27.8-4.8c6-4.2,11.7-8.7,17.5-13.1c8.7-6.6,18.5-10,29.5-9.8
		c7.3,0.1,14.6,0,21.9,0c1.1,0,2.2-0.2,3.3-0.3c0-13.5,0-26.7,0-39.8c0-35.6,0-71.2,0-106.9c0-12.3-8.1-20.4-20.5-20.4
		c-4.6,0-9.2,0-13.7,0C5250.4,181.1,5227.7,181.1,5204.7,181.1z M5165.8,181.3c0,56.7,0,113.1,0,168.2c8.9,5.8,17.1,11.2,25.4,16.6
		c0-61.7,0-123.2,0-184.8C5182.7,181.3,5174.5,181.3,5165.8,181.3z M5152.6,181.1c-1.4,0-2.4,0.1-3.4,0
		c-15.7-1.4-24.3,8.9-24.1,23.9c0.6,46.1,0.2,92.1,0.2,138.2c0,1.7,0,3.3,0,5.1c9.4,0,18.3,0,27.3,0
		C5152.6,292.5,5152.6,237.1,5152.6,181.1z M5112.2,258.4c-6,0-11.7,0-17.4,0c-1.3,0-2.6,0-3.8,0.1c-9.7,1.1-17.8,10.1-16.6,18.8
		c11.5-8.8,24.9-5.2,37.8-6.2C5112.2,266.9,5112.2,262.9,5112.2,258.4z M5099.7,322.5c4.4,0,8.4,0,12.4,0c0-4.4,0-8.4,0-12.4
		c-4.3,0-8.2,0-12.4,0C5099.7,314.3,5099.7,318.3,5099.7,322.5z M5332.8,322.6c0-4.4,0-8.5,0-12.4c-4.4,0-8.4,0-12.3,0
		c0,4.3,0,8.2,0,12.4C5324.7,322.6,5328.6,322.6,5332.8,322.6z M5112.1,348.4c0-4.4,0-8.5,0-12.4c-4.4,0-8.4,0-12.3,0
		c0,4.3,0,8.2,0,12.4C5103.9,348.4,5107.9,348.4,5112.1,348.4z M5333,335.9c-4.4,0-8.4,0-12.4,0c0,4.3,0,8.3,0,12.3
		c4.3,0,8.4,0,12.4,0C5333,344,5333,340.1,5333,335.9z"></path>
	<path d="M5112.2,284.2c0,4.4,0,8.3,0,12.9c-5.7,0-11.4,0-17,0c-6.4,0-8.5,2.1-8.5,8.5c0,15.9,0,31.8,0,47.7
		c0,6.1,2.2,8.3,8.3,8.3c18.5,0,36.9,0.1,55.4,0c8.2,0,15.5,2.3,22,7.2c5.5,4.2,10.9,8.3,16.5,12.4c17.1,12.5,38,12.5,55.1,0
		c5.2-3.8,10.4-7.6,15.4-11.6c7.1-5.7,15.1-8.2,24.3-8.1c17.9,0.2,35.8,0.1,53.7,0.1c6.7,0,8.8-2.1,8.8-8.7c0-15.7,0-31.5,0-47.2
		c0-6.4-2.1-8.5-8.5-8.5c-5.6,0-11.1,0-17,0c0-4.3,0-8.3,0-12.6c7.4,0,14.9-0.7,22.2,0.2c9.6,1.1,16.1,9.4,16.1,19.3
		c0.1,16.6,0.1,33.2,0,49.8c0,3.7,1.2,6.5,4.9,7.6c3.9,1.1,7.9-1.8,7.9-6.2c0.1-18.2,0.6-36.4-0.2-54.5
		c-0.7-16.2-14.9-28.8-31.1-29.2c-6.5-0.1-13.1,0-19.9,0c0-4.3,0-8.3,0-12.3c24.2-6.2,49.7,4.1,59.3,24.7c2.8,5.9,4.6,12.9,4.7,19.3
		c0.3,82.4,0.3,164.9,0.1,247.3c-0.1,24.7-19.8,44.5-44.6,44.6c-82.2,0.2-164.4,0.1-246.5,0.1c-11.1,0-19.5-8.2-19.4-19
		c8.5,6.4,18.2,6.2,28.1,6.2c78.6-0.1,157.2,0,235.8-0.1c17.7,0,30.7-10.8,33.5-27.6c0.4-2.2,0.4-4.6,0.4-6.8c0-54.7,0-109.4,0-164
		c0-1,0.1-2,0-3c-0.3-3.7-2.9-6.3-6.3-6.3c-3.4,0-6.1,2.5-6.5,6.2c-0.1,1.3,0,2.6,0,3.9c0,54.2,0,108.5,0,162.7
		c0,14.6-7.5,22.2-22.2,22.2c-80.3,0-160.6,0-240.9,0c-14.4,0-22-7.6-22-21.9c0-80.4,0-160.9,0-241.3c0-14.3,7.6-21.9,22.1-21.9
		C5101.1,284.2,5106.4,284.2,5112.2,284.2z" class="st0"></path>
	<path d="M5204.7,181.1c23,0,45.8,0,68.5,0c4.6,0,9.2,0,13.7,0c12.3,0.1,20.5,8.1,20.5,20.4c0,35.6,0,71.2,0,106.9
		c0,13.2,0,26.3,0,39.8c-1.2,0.1-2.3,0.3-3.3,0.3c-7.3,0-14.6,0.1-21.9,0c-11-0.1-20.8,3.2-29.5,9.8c-5.8,4.4-11.6,8.9-17.5,13.1
		c-8.4,5.9-17.8,7.4-27.8,4.8c-2.1-0.6-3.1-1.4-3.1-3.7c0.1-63.2,0.1-126.5,0.1-189.7C5204.3,182.4,5204.5,182,5204.7,181.1z" class="st0"></path>
	<path d="M5165.8,181.3c8.6,0,16.9,0,25.4,0c0,61.6,0,123.1,0,184.8c-8.2-5.4-16.5-10.8-25.4-16.6
		C5165.8,294.3,5165.8,238,5165.8,181.3z" class="st0"></path>
	<path d="M5152.6,181.1c0,56,0,111.5,0,167.2c-9,0-18,0-27.3,0c0-1.8,0-3.4,0-5.1c0-46.1,0.4-92.1-0.2-138.2
		c-0.2-14.9,8.4-25.3,24.1-23.9C5150.2,181.2,5151.2,181.1,5152.6,181.1z" class="st0"></path>
	<path d="M5112.2,258.4c0,4.5,0,8.5,0,12.7c-12.9,1.1-26.3-2.5-37.8,6.2c-1.2-8.7,6.9-17.7,16.6-18.8
		c1.3-0.1,2.6-0.1,3.8-0.1C5100.5,258.4,5106.2,258.4,5112.2,258.4z" class="st0"></path>
	<path d="M5099.7,322.5c0-4.2,0-8.2,0-12.4c4.1,0,8.1,0,12.4,0c0,4,0,8,0,12.4C5108.1,322.5,5104.1,322.5,5099.7,322.5z" class="st0"></path>
	<path d="M5332.8,322.6c-4.2,0-8.2,0-12.3,0c0-4.1,0-8.1,0-12.4c3.9,0,8,0,12.3,0
		C5332.8,314.2,5332.8,318.2,5332.8,322.6z" class="st0"></path>
	<path d="M5112.1,348.4c-4.2,0-8.2,0-12.3,0c0-4.1,0-8.1,0-12.4c3.9,0,8,0,12.3,0C5112.1,339.9,5112.1,344,5112.1,348.4
		z" class="st0"></path>
	<path d="M5333,335.9c0,4.2,0,8.1,0,12.3c-4.1,0-8.1,0-12.4,0c0-4,0-8.1,0-12.3C5324.6,335.9,5328.5,335.9,5333,335.9z" class="st0"></path>
</g>
<g>
	<path d="M140.7,707.9c4.8-1,11.8-1.5,18.4-1.5c10.2,0,16.8,1.9,21.5,6c3.7,3.3,5.8,8.4,5.8,14.1c0,9.8-6.2,16.3-14,18.9v0.3
		c5.7,2,9.1,7.3,10.9,15c2.4,10.3,4.2,17.5,5.7,20.4h-9.9c-1.2-2.1-2.9-8.5-5-17.7c-2.2-10.2-6.2-14.1-14.9-14.4h-9v32.1h-9.6V707.9
		z M150.3,741.7h9.8c10.2,0,16.7-5.6,16.7-14.1c0-9.6-6.9-13.8-17.1-13.9c-4.6,0-7.9,0.4-9.5,0.9V741.7z"></path>
	<path d="M199.9,706.9h39.9v8h-30.4v24.6h28.1v7.9h-28.1v33.5h-9.6V706.9z"></path>
	<path d="M263,706.9v74.1h-9.6v-74.1H263z"></path>
	<path d="M279.7,707.9c5.8-0.9,12.8-1.5,20.4-1.5c13.8,0,23.5,3.2,30,9.2c6.6,6,10.5,14.6,10.5,26.6c0,12.1-3.7,22-10.7,28.8
		c-6.9,6.9-18.4,10.7-32.8,10.7c-6.8,0-12.5-0.3-17.4-0.9V707.9z M289.3,773.5c2.4,0.4,5.9,0.5,9.7,0.5c20.5,0,31.6-11.4,31.6-31.5
		c0.1-17.5-9.8-28.6-30-28.6c-5,0-8.7,0.4-11.2,1V773.5z"></path>
	<path d="M376.3,707.8c4.6-0.8,10.7-1.4,18.4-1.4c9.5,0,16.4,2.2,20.8,6.2c4.1,3.5,6.5,8.9,6.5,15.5c0,6.7-2,12-5.7,15.8
		c-5.1,5.4-13.3,8.1-22.7,8.1c-2.9,0-5.5-0.1-7.7-0.7v29.7h-9.6V707.8z M385.9,743.6c2.1,0.5,4.7,0.8,7.9,0.8
		c11.6,0,18.6-5.6,18.6-15.8c0-9.8-6.9-14.5-17.5-14.5c-4.2,0-7.4,0.3-9,0.8V743.6z"></path>
	<path d="M432.8,744.4c0-6.3-0.1-11.7-0.4-16.6h8.5l0.3,10.5h0.4c2.4-7.2,8.3-11.7,14.7-11.7c1.1,0,1.9,0.1,2.8,0.3v9.1
		c-1-0.2-2-0.3-3.3-0.3c-6.8,0-11.7,5.2-13,12.4c-0.2,1.3-0.4,2.9-0.4,4.5v28.4h-9.6V744.4z"></path>
	<path d="M515.8,754c0,19.7-13.6,28.3-26.5,28.3c-14.4,0-25.5-10.6-25.5-27.4c0-17.8,11.7-28.3,26.4-28.3
		C505.5,726.6,515.8,737.7,515.8,754z M473.6,754.6c0,11.7,6.7,20.5,16.2,20.5c9.2,0,16.2-8.7,16.2-20.7c0-9-4.5-20.5-15.9-20.5
		C478.5,733.9,473.6,744.4,473.6,754.6z"></path>
	<path d="M539.7,712.5v15.3h13.9v7.4h-13.9v28.7c0,6.6,1.9,10.3,7.3,10.3c2.5,0,4.4-0.3,5.6-0.7l0.4,7.3c-1.9,0.8-4.8,1.3-8.6,1.3
		c-4.5,0-8.1-1.4-10.4-4.1c-2.8-2.9-3.7-7.6-3.7-13.9v-29H522v-7.4h8.3v-12.8L539.7,712.5z"></path>
	<path d="M569.2,756.2c0.2,13.1,8.6,18.5,18.3,18.5c6.9,0,11.1-1.2,14.7-2.8l1.6,6.9c-3.4,1.5-9.2,3.3-17.7,3.3
		c-16.4,0-26.2-10.8-26.2-26.8c0-16.1,9.5-28.7,25-28.7c17.4,0,22,15.3,22,25.1c0,2-0.2,3.5-0.3,4.5H569.2z M597.5,749.3
		c0.1-6.2-2.5-15.7-13.4-15.7c-9.8,0-14.1,9-14.9,15.7H597.5z"></path>
	<path d="M656.8,779.1c-2.5,1.3-8.1,3.1-15.3,3.1c-16.1,0-26.5-10.9-26.5-27.2c0-16.4,11.2-28.3,28.6-28.3c5.7,0,10.8,1.4,13.4,2.8
		l-2.2,7.5c-2.3-1.3-5.9-2.5-11.2-2.5c-12.2,0-18.8,9-18.8,20.1c0,12.3,7.9,19.9,18.5,19.9c5.5,0,9.1-1.4,11.9-2.6L656.8,779.1z"></path>
	<path d="M681.2,712.5v15.3h13.9v7.4h-13.9v28.7c0,6.6,1.9,10.3,7.3,10.3c2.5,0,4.4-0.3,5.6-0.7l0.4,7.3c-1.9,0.8-4.8,1.3-8.6,1.3
		c-4.5,0-8.1-1.4-10.4-4.1c-2.8-2.9-3.7-7.6-3.7-13.9v-29h-8.3v-7.4h8.3v-12.8L681.2,712.5z"></path>
	<path d="M716.8,712.9c0.1,3.3-2.3,5.9-6.2,5.9c-3.4,0-5.8-2.6-5.8-5.9c0-3.4,2.5-6,6.1-6C714.5,706.8,716.8,709.5,716.8,712.9z
		 M706,781.1v-53.2h9.7v53.2H706z"></path>
	<path d="M779.9,754c0,19.7-13.6,28.3-26.5,28.3c-14.4,0-25.5-10.6-25.5-27.4c0-17.8,11.7-28.3,26.4-28.3
		C769.6,726.6,779.9,737.7,779.9,754z M737.7,754.6c0,11.7,6.7,20.5,16.2,20.5c9.2,0,16.2-8.7,16.2-20.7c0-9-4.5-20.5-15.9-20.5
		C742.6,733.9,737.7,744.4,737.7,754.6z"></path>
	<path d="M792.1,742.2c0-5.5-0.1-10-0.4-14.4h8.6l0.6,8.8h0.2c2.6-5.1,8.8-10,17.6-10c7.4,0,18.8,4.4,18.8,22.7v31.8h-9.7v-30.7
		c0-8.6-3.2-15.7-12.3-15.7c-6.4,0-11.3,4.5-13,9.9c-0.4,1.2-0.7,2.9-0.7,4.5v32h-9.7V742.2z"></path>
</g>
<g>
	<path d="M1432.5,749.7c-0.5-10.3-1.2-22.8-1.1-32h-0.3c-2.5,8.7-5.6,17.9-9.3,28.2l-13.1,36h-7.3l-12-35.3
		c-3.5-10.5-6.5-20-8.6-28.8h-0.2c-0.2,9.2-0.8,21.7-1.4,32.8l-2,31.8h-9.1l5.2-74.1h12.2l12.6,35.9c3.1,9.1,5.6,17.3,7.5,25h0.3
		c1.9-7.5,4.5-15.6,7.8-25l13.2-35.9h12.2l4.6,74.1h-9.4L1432.5,749.7z"></path>
	<path d="M1470.2,714.1c0.1,3.3-2.3,5.9-6.2,5.9c-3.4,0-5.8-2.6-5.8-5.9c0-3.4,2.5-6,6.1-6C1467.9,708,1470.2,710.7,1470.2,714.1z
		 M1459.4,782.3V729h9.7v53.2H1459.4z"></path>
	<path d="M1485.2,704.2h9.7v78.1h-9.7V704.2z"></path>
	<path d="M1521.9,714.1c0.1,3.3-2.3,5.9-6.2,5.9c-3.4,0-5.8-2.6-5.8-5.9c0-3.4,2.5-6,6.1-6C1519.6,708,1521.9,710.7,1521.9,714.1z
		 M1511.1,782.3V729h9.7v53.2H1511.1z"></path>
	<path d="M1548.5,713.8V729h13.9v7.4h-13.9v28.7c0,6.6,1.9,10.3,7.3,10.3c2.5,0,4.4-0.3,5.6-0.7l0.4,7.3c-1.9,0.8-4.8,1.3-8.6,1.3
		c-4.5,0-8.1-1.4-10.4-4.1c-2.8-2.9-3.7-7.6-3.7-13.9v-29h-8.3V729h8.3v-12.8L1548.5,713.8z"></path>
	<path d="M1602.8,782.3l-0.8-6.7h-0.3c-3,4.2-8.7,7.9-16.3,7.9c-10.8,0-16.3-7.6-16.3-15.3c0-12.9,11.4-19.9,32-19.8v-1.1
		c0-4.4-1.2-12.3-12.1-12.3c-5,0-10.1,1.5-13.9,4l-2.2-6.4c4.4-2.9,10.8-4.7,17.5-4.7c16.3,0,20.2,11.1,20.2,21.8v19.9
		c0,4.6,0.2,9.1,0.9,12.8H1602.8z M1601.3,755.1c-10.6-0.2-22.5,1.6-22.5,12c0,6.3,4.2,9.2,9.1,9.2c6.9,0,11.3-4.4,12.9-8.9
		c0.3-1,0.5-2.1,0.5-3.1V755.1z"></path>
	<path d="M1626.3,745.7c0-6.3-0.1-11.7-0.4-16.6h8.5l0.3,10.5h0.4c2.4-7.2,8.3-11.7,14.7-11.7c1.1,0,1.9,0.1,2.8,0.3v9.1
		c-1-0.2-2-0.3-3.3-0.3c-6.8,0-11.7,5.2-13,12.4c-0.2,1.3-0.4,2.9-0.4,4.5v28.4h-9.6V745.7z"></path>
	<path d="M1668.5,729l11.7,31.5c1.2,3.5,2.5,7.7,3.4,10.9h0.2c1-3.2,2.1-7.3,3.4-11.1l10.6-31.2h10.2l-14.5,38
		c-6.9,18.3-11.7,27.6-18.3,33.3c-4.7,4.2-9.5,5.8-11.9,6.3l-2.4-8.1c2.4-0.8,5.6-2.3,8.5-4.7c2.6-2.1,5.9-5.8,8.1-10.8
		c0.4-1,0.8-1.8,0.8-2.3c0-0.5-0.2-1.3-0.7-2.5L1658,729H1668.5z"></path>
	<path d="M1796.9,779c-4.3,1.5-12.8,4.1-22.8,4.1c-11.2,0-20.5-2.9-27.7-9.8c-6.4-6.2-10.3-16.1-10.3-27.6
		c0.1-22.1,15.3-38.3,40.2-38.3c8.6,0,15.3,1.9,18.5,3.4l-2.3,7.8c-4-1.8-8.9-3.2-16.4-3.2c-18,0-29.8,11.2-29.8,29.8
		c0,18.8,11.3,29.9,28.6,29.9c6.3,0,10.6-0.9,12.8-2V751h-15.1v-7.7h24.4V779z"></path>
	<path d="M1811.2,745.7c0-6.3-0.1-11.7-0.4-16.6h8.5l0.3,10.5h0.4c2.4-7.2,8.3-11.7,14.7-11.7c1.1,0,1.9,0.1,2.8,0.3v9.1
		c-1-0.2-2-0.3-3.3-0.3c-6.8,0-11.7,5.2-13,12.4c-0.2,1.3-0.4,2.9-0.4,4.5v28.4h-9.6V745.7z"></path>
	<path d="M1876.1,782.3l-0.8-6.7h-0.3c-3,4.2-8.7,7.9-16.3,7.9c-10.8,0-16.3-7.6-16.3-15.3c0-12.9,11.4-19.9,32-19.8v-1.1
		c0-4.4-1.2-12.3-12.1-12.3c-5,0-10.1,1.5-13.9,4l-2.2-6.4c4.4-2.9,10.8-4.7,17.5-4.7c16.3,0,20.2,11.1,20.2,21.8v19.9
		c0,4.6,0.2,9.1,0.9,12.8H1876.1z M1874.7,755.1c-10.6-0.2-22.5,1.6-22.5,12c0,6.3,4.2,9.2,9.1,9.2c6.9,0,11.3-4.4,12.9-8.9
		c0.3-1,0.5-2.1,0.5-3.1V755.1z"></path>
	<path d="M1945.6,704.2v64.4c0,4.7,0.1,10.1,0.4,13.8h-8.7l-0.4-9.2h-0.2c-3,5.9-9.5,10.5-18.1,10.5c-12.9,0-22.8-10.9-22.8-27.1
		c-0.1-17.7,10.9-28.6,23.9-28.6c8.1,0,13.6,3.8,16.1,8.1h0.2v-31.8H1945.6z M1936,750.7c0-1.2-0.1-2.9-0.4-4.1
		c-1.4-6.2-6.7-11.2-14-11.2c-10,0-15.9,8.8-15.9,20.6c0,10.8,5.3,19.7,15.7,19.7c6.5,0,12.4-4.3,14.2-11.6c0.3-1.3,0.4-2.6,0.4-4.2
		V750.7z"></path>
	<path d="M1967.1,757.4c0.2,13.1,8.6,18.5,18.3,18.5c6.9,0,11.1-1.2,14.7-2.8l1.6,6.9c-3.4,1.5-9.2,3.3-17.7,3.3
		c-16.4,0-26.2-10.8-26.2-26.8c0-16.1,9.5-28.7,25-28.7c17.4,0,22,15.3,22,25.1c0,2-0.2,3.5-0.3,4.5H1967.1z M1995.5,750.5
		c0.1-6.2-2.5-15.7-13.4-15.7c-9.8,0-14.1,9-14.9,15.7H1995.5z"></path>
	<path d="M2052.4,759l-7.7,23.3h-9.9l25.2-74.1h11.6l25.3,74.1h-10.2l-7.9-23.3H2052.4z M2076.7,751.5l-7.3-21.3
		c-1.7-4.8-2.8-9.2-3.9-13.5h-0.2c-1.1,4.4-2.3,8.9-3.7,13.4l-7.3,21.5H2076.7z"></path>
	<path d="M2107.1,704.2h9.7v78.1h-9.7V704.2z"></path>
	<path d="M2177.6,767.8c0,5.5,0.1,10.3,0.4,14.5h-8.6l-0.6-8.7h-0.2c-2.5,4.3-8.1,9.9-17.6,9.9c-8.4,0-18.4-4.6-18.4-23.3V729h9.7
		v29.5c0,10.1,3.1,16.9,11.9,16.9c6.5,0,11-4.5,12.8-8.8c0.6-1.4,0.9-3.2,0.9-5V729h9.7V767.8z"></path>
	<path d="M2193.7,743.5c0-5.5-0.1-10-0.4-14.4h8.5l0.4,8.6h0.3c3-5.1,7.9-9.8,16.7-9.8c7.3,0,12.8,4.4,15.1,10.7h0.2
		c1.6-3,3.7-5.3,5.9-6.9c3.2-2.4,6.7-3.7,11.8-3.7c7,0,17.5,4.6,17.5,23.1v31.4h-9.5v-30.1c0-10.2-3.7-16.4-11.6-16.4
		c-5.5,0-9.8,4.1-11.4,8.8c-0.4,1.3-0.8,3.1-0.8,4.8v32.9h-9.5v-31.9c0-8.5-3.7-14.6-11.1-14.6c-6,0-10.4,4.8-12,9.7
		c-0.6,1.4-0.8,3.1-0.8,4.7v32.1h-9.5V743.5z"></path>
	<path d="M2296.2,714.1c0.1,3.3-2.3,5.9-6.2,5.9c-3.4,0-5.8-2.6-5.8-5.9c0-3.4,2.5-6,6.1-6C2293.9,708,2296.2,710.7,2296.2,714.1z
		 M2285.4,782.3V729h9.7v53.2H2285.4z"></path>
	<path d="M2311.2,743.5c0-5.5-0.1-10-0.4-14.4h8.6l0.6,8.8h0.2c2.6-5.1,8.8-10,17.6-10c7.4,0,18.8,4.4,18.8,22.7v31.8h-9.7v-30.7
		c0-8.6-3.2-15.7-12.3-15.7c-6.4,0-11.3,4.5-13,9.9c-0.4,1.2-0.7,2.9-0.7,4.5v32h-9.7V743.5z"></path>
	<path d="M2383,714.1c0.1,3.3-2.3,5.9-6.2,5.9c-3.4,0-5.8-2.6-5.8-5.9c0-3.4,2.5-6,6.1-6C2380.7,708,2383,710.7,2383,714.1z
		 M2372.2,782.3V729h9.7v53.2H2372.2z"></path>
	<path d="M2442.5,767.8c0,5.5,0.1,10.3,0.4,14.5h-8.6l-0.6-8.7h-0.2c-2.5,4.3-8.1,9.9-17.6,9.9c-8.4,0-18.4-4.6-18.4-23.3V729h9.7
		v29.5c0,10.1,3.1,16.9,11.9,16.9c6.5,0,11-4.5,12.8-8.8c0.6-1.4,0.9-3.2,0.9-5V729h9.7V767.8z"></path>
	<path d="M2458.6,743.5c0-5.5-0.1-10-0.4-14.4h8.5l0.4,8.6h0.3c3-5.1,7.9-9.8,16.7-9.8c7.3,0,12.8,4.4,15.1,10.7h0.2
		c1.6-3,3.7-5.3,5.9-6.9c3.2-2.4,6.7-3.7,11.8-3.7c7,0,17.5,4.6,17.5,23.1v31.4h-9.5v-30.1c0-10.2-3.7-16.4-11.6-16.4
		c-5.5,0-9.8,4.1-11.4,8.8c-0.4,1.3-0.8,3.1-0.8,4.8v32.9h-9.5v-31.9c0-8.5-3.7-14.6-11.1-14.6c-6,0-10.4,4.8-12,9.7
		c-0.6,1.4-0.8,3.1-0.8,4.7v32.1h-9.5V743.5z"></path>
</g>
<g>
	<path d="M3139.2,713.3c4.6-0.8,10.7-1.4,18.4-1.4c9.5,0,16.4,2.2,20.8,6.2c4.1,3.5,6.5,8.9,6.5,15.5c0,6.7-2,12-5.7,15.8
		c-5.1,5.4-13.3,8.1-22.7,8.1c-2.9,0-5.5-0.1-7.7-0.7v29.7h-9.6V713.3z M3148.8,749c2.1,0.5,4.7,0.8,7.9,0.8
		c11.6,0,18.6-5.6,18.6-15.8c0-9.8-6.9-14.5-17.5-14.5c-4.2,0-7.4,0.3-9,0.8V749z"></path>
	<path d="M3195.6,749.9c0-6.3-0.1-11.7-0.4-16.6h8.5l0.3,10.5h0.4c2.4-7.2,8.3-11.7,14.7-11.7c1.1,0,1.9,0.1,2.8,0.3v9.1
		c-1-0.2-2-0.3-3.3-0.3c-6.8,0-11.7,5.2-13,12.4c-0.2,1.3-0.4,2.9-0.4,4.5v28.4h-9.6V749.9z"></path>
	<path d="M3235.9,761.7c0.2,13.1,8.6,18.5,18.3,18.5c6.9,0,11.1-1.2,14.7-2.8l1.7,6.9c-3.4,1.5-9.2,3.3-17.7,3.3
		c-16.4,0-26.2-10.8-26.2-26.8c0-16.1,9.5-28.7,25-28.7c17.4,0,22,15.3,22,25.1c0,2-0.2,3.5-0.3,4.5H3235.9z M3264.3,754.7
		c0.1-6.2-2.5-15.7-13.4-15.7c-9.8,0-14.1,9-14.9,15.7H3264.3z"></path>
	<path d="M3285.6,747.7c0-5.5-0.1-10-0.4-14.4h8.5l0.4,8.6h0.3c3-5.1,7.9-9.8,16.7-9.8c7.3,0,12.8,4.4,15.1,10.7h0.2
		c1.7-3,3.7-5.3,5.9-6.9c3.2-2.4,6.7-3.7,11.8-3.7c7,0,17.5,4.6,17.5,23.1v31.4h-9.5v-30.1c0-10.2-3.7-16.4-11.6-16.4
		c-5.5,0-9.8,4.1-11.4,8.8c-0.4,1.3-0.8,3.1-0.8,4.8v32.9h-9.5v-31.9c0-8.5-3.7-14.6-11.1-14.6c-6.1,0-10.5,4.8-12,9.7
		c-0.6,1.4-0.8,3.1-0.8,4.7v32.1h-9.5V747.7z"></path>
	<path d="M3388.1,718.3c0.1,3.3-2.3,5.9-6.2,5.9c-3.4,0-5.8-2.6-5.8-5.9c0-3.4,2.5-6,6-6C3385.8,712.3,3388.1,714.9,3388.1,718.3z
		 M3377.3,786.5v-53.2h9.7v53.2H3377.3z"></path>
	<path d="M3447.6,772c0,5.5,0.1,10.3,0.4,14.5h-8.6l-0.6-8.7h-0.2c-2.5,4.3-8.1,9.9-17.6,9.9c-8.4,0-18.4-4.6-18.4-23.3v-31.1h9.7
		v29.5c0,10.1,3.1,16.9,11.9,16.9c6.5,0,11-4.5,12.8-8.8c0.5-1.4,0.9-3.2,0.9-5v-32.7h9.7V772z"></path>
	<path d="M3463.7,747.7c0-5.5-0.1-10-0.4-14.4h8.5l0.4,8.6h0.3c3-5.1,7.9-9.8,16.7-9.8c7.3,0,12.8,4.4,15.1,10.7h0.2
		c1.6-3,3.7-5.3,5.9-6.9c3.2-2.4,6.7-3.7,11.8-3.7c7,0,17.5,4.6,17.5,23.1v31.4h-9.5v-30.1c0-10.2-3.7-16.4-11.5-16.4
		c-5.5,0-9.8,4.1-11.4,8.8c-0.4,1.3-0.8,3.1-0.8,4.8v32.9h-9.5v-31.9c0-8.5-3.7-14.6-11.1-14.6c-6,0-10.4,4.8-12,9.7
		c-0.5,1.4-0.8,3.1-0.8,4.7v32.1h-9.5V747.7z"></path>
	<path d="M3591.4,786.5l-24.2-74.1h10.3l11.5,36.5c3.2,10,5.9,19,7.9,27.7h0.2c2.1-8.6,5.2-17.9,8.5-27.6l12.5-36.6h10.2l-26.5,74.1
		H3591.4z"></path>
	<path d="M3637.9,761.7c0.2,13.1,8.6,18.5,18.3,18.5c6.9,0,11.1-1.2,14.7-2.8l1.7,6.9c-3.4,1.5-9.2,3.3-17.7,3.3
		c-16.4,0-26.2-10.8-26.2-26.8c0-16.1,9.5-28.7,25-28.7c17.4,0,22,15.3,22,25.1c0,2-0.2,3.5-0.3,4.5H3637.9z M3666.3,754.7
		c0.1-6.2-2.5-15.7-13.4-15.7c-9.8,0-14.1,9-14.9,15.7H3666.3z"></path>
	<path d="M3733.5,733.3c-0.2,3.8-0.4,8.1-0.4,14.6v30.9c0,12.2-2.4,19.7-7.6,24.3c-5.2,4.8-12.7,6.4-19.4,6.4
		c-6.4,0-13.4-1.5-17.7-4.4l2.4-7.4c3.5,2.2,9,4.2,15.6,4.2c9.9,0,17.2-5.2,17.2-18.6v-5.9h-0.2c-3,5-8.7,8.9-16.9,8.9
		c-13.2,0-22.7-11.2-22.7-26c0-18,11.8-28.3,24-28.3c9.2,0,14.3,4.8,16.6,9.2h0.2l0.4-8H3733.5z M3723.5,754.3
		c0-1.6-0.1-3.1-0.5-4.4c-1.8-5.6-6.5-10.2-13.5-10.2c-9.2,0-15.8,7.8-15.8,20.1c0,10.5,5.3,19.1,15.7,19.1c5.9,0,11.3-3.7,13.4-9.9
		c0.6-1.6,0.8-3.5,0.8-5.2V754.3z"></path>
	<path d="M3778.6,786.5l-0.8-6.7h-0.3c-3,4.2-8.7,7.9-16.3,7.9c-10.8,0-16.3-7.6-16.3-15.3c0-12.9,11.4-19.9,32-19.8v-1.1
		c0-4.4-1.2-12.3-12.1-12.3c-4.9,0-10.1,1.5-13.9,4l-2.2-6.4c4.4-2.9,10.8-4.7,17.5-4.7c16.3,0,20.2,11.1,20.2,21.8v19.9
		c0,4.6,0.2,9.1,0.9,12.8H3778.6z M3777.2,759.4c-10.6-0.2-22.5,1.6-22.5,12c0,6.3,4.2,9.2,9.1,9.2c6.9,0,11.3-4.4,12.9-8.9
		c0.3-1,0.5-2.1,0.5-3.1V759.4z"></path>
	<path d="M3802.2,747.7c0-5.5-0.1-10-0.4-14.4h8.6l0.5,8.8h0.2c2.6-5.1,8.8-10,17.6-10c7.4,0,18.8,4.4,18.8,22.7v31.8h-9.7v-30.7
		c0-8.6-3.2-15.7-12.3-15.7c-6.4,0-11.3,4.5-13,9.9c-0.4,1.2-0.7,2.9-0.7,4.5v32h-9.7V747.7z"></path>
	<path d="M3886.9,712.4h9.6v66.1h31.7v8h-41.3V712.4z"></path>
	<path d="M3942.3,761.7c0.2,13.1,8.6,18.5,18.3,18.5c6.9,0,11.1-1.2,14.7-2.8l1.6,6.9c-3.4,1.5-9.2,3.3-17.7,3.3
		c-16.4,0-26.2-10.8-26.2-26.8c0-16.1,9.5-28.7,25-28.7c17.4,0,22,15.3,22,25.1c0,2-0.2,3.5-0.3,4.5H3942.3z M3970.7,754.7
		c0.1-6.2-2.5-15.7-13.4-15.7c-9.8,0-14.1,9-14.8,15.7H3970.7z"></path>
	<path d="M4021.5,786.5l-0.8-6.7h-0.3c-3,4.2-8.7,7.9-16.3,7.9c-10.8,0-16.3-7.6-16.3-15.3c0-12.9,11.4-19.9,32-19.8v-1.1
		c0-4.4-1.2-12.3-12.1-12.3c-5,0-10.1,1.5-13.9,4l-2.2-6.4c4.4-2.9,10.8-4.7,17.5-4.7c16.3,0,20.2,11.1,20.2,21.8v19.9
		c0,4.6,0.2,9.1,0.9,12.8H4021.5z M4020.1,759.4c-10.6-0.2-22.5,1.6-22.5,12c0,6.3,4.2,9.2,9.1,9.2c6.9,0,11.3-4.4,12.9-8.9
		c0.3-1,0.5-2.1,0.5-3.1V759.4z"></path>
	<path d="M4056.3,718v15.3h13.9v7.4h-13.9v28.7c0,6.6,1.9,10.3,7.3,10.3c2.5,0,4.4-0.3,5.6-0.7l0.4,7.3c-1.9,0.8-4.8,1.3-8.6,1.3
		c-4.5,0-8.1-1.4-10.4-4.1c-2.8-2.9-3.7-7.6-3.7-13.9v-29h-8.3v-7.4h8.3v-12.8L4056.3,718z"></path>
	<path d="M4081,708.4h9.7v33.2h0.2c1.5-2.8,4-5.2,6.9-6.8c2.9-1.7,6.3-2.8,9.9-2.8c7.2,0,18.6,4.4,18.6,22.8v31.7h-9.7v-30.6
		c0-8.6-3.2-15.8-12.3-15.8c-6.3,0-11.2,4.4-13,9.7c-0.5,1.3-0.7,2.8-0.7,4.6v32.1h-9.7V708.4z"></path>
	<path d="M4147.4,761.7c0.2,13.1,8.6,18.5,18.3,18.5c6.9,0,11.1-1.2,14.7-2.8l1.7,6.9c-3.4,1.5-9.2,3.3-17.7,3.3
		c-16.4,0-26.2-10.8-26.2-26.8c0-16.1,9.5-28.7,25-28.7c17.4,0,22,15.3,22,25.1c0,2-0.2,3.5-0.3,4.5H4147.4z M4175.8,754.7
		c0.1-6.2-2.5-15.7-13.4-15.7c-9.8,0-14.1,9-14.9,15.7H4175.8z"></path>
	<path d="M4197.2,749.9c0-6.3-0.1-11.7-0.4-16.6h8.5l0.3,10.5h0.4c2.4-7.2,8.3-11.7,14.7-11.7c1.1,0,1.9,0.1,2.8,0.3v9.1
		c-1-0.2-2-0.3-3.3-0.3c-6.8,0-11.7,5.2-13,12.4c-0.2,1.3-0.4,2.9-0.4,4.5v28.4h-9.6V749.9z"></path>
</g>
<g>
	<path d="M4755.2,774.9c4.3,2.6,10.6,4.8,17.2,4.8c9.8,0,15.5-5.2,15.5-12.6c0-6.9-4-10.9-14-14.7c-12.1-4.3-19.6-10.6-19.6-21
		c0-11.5,9.6-20.1,24-20.1c7.6,0,13.1,1.8,16.4,3.6l-2.6,7.8c-2.4-1.3-7.4-3.5-14.1-3.5c-10.1,0-14,6.1-14,11.1
		c0,6.9,4.5,10.3,14.7,14.3c12.5,4.8,18.9,10.9,18.9,21.8c0,11.4-8.5,21.3-26,21.3c-7.1,0-15-2.1-18.9-4.7L4755.2,774.9z"></path>
	<path d="M4810.4,708.4h9.7v78.1h-9.7V708.4z"></path>
	<path d="M4847.2,718.3c0.1,3.3-2.3,5.9-6.2,5.9c-3.4,0-5.8-2.6-5.8-5.9c0-3.4,2.5-6,6-6C4844.9,712.3,4847.2,714.9,4847.2,718.3z
		 M4836.4,786.5v-53.2h9.7v53.2H4836.4z"></path>
	<path d="M4862.1,747.7c0-5.5-0.1-10-0.4-14.4h8.5l0.4,8.6h0.3c3-5.1,7.9-9.8,16.7-9.8c7.3,0,12.8,4.4,15.1,10.7h0.2
		c1.6-3,3.7-5.3,5.9-6.9c3.2-2.4,6.7-3.7,11.8-3.7c7,0,17.5,4.6,17.5,23.1v31.4h-9.5v-30.1c0-10.2-3.7-16.4-11.5-16.4
		c-5.5,0-9.8,4.1-11.4,8.8c-0.4,1.3-0.8,3.1-0.8,4.8v32.9h-9.5v-31.9c0-8.5-3.7-14.6-11.1-14.6c-6,0-10.4,4.8-12,9.7
		c-0.5,1.4-0.8,3.1-0.8,4.7v32.1h-9.5V747.7z"></path>
	<path d="M5023.9,786.5c-2.1-2.1-4.1-4.2-6.9-7.3c-6.4,5.9-13.5,8.5-21.7,8.5c-14.4,0-22.8-9.7-22.8-20.8c0-10.1,6.1-17,14.5-21.7
		v-0.3c-3.9-4.8-6.2-10.2-6.2-15.5c0-9,6.5-18.3,18.8-18.3c9.2,0,16.4,6.2,16.4,15.7c0,7.8-4.5,14-16.3,19.8v0.3
		c6.3,7.3,13.3,15.4,18,20.7c3.4-5.2,5.7-12.3,7.2-21.7h8.8c-2,11.7-5.2,20.9-10.7,27.4c4,4.2,7.8,8.4,12.2,13.1H5023.9z
		 M5012.3,773.8c-4.4-4.8-12.7-13.9-20.9-23.3c-4,2.5-9.6,7.3-9.6,15.1c0,8.5,6.3,15,15.2,15
		C5003.4,780.5,5008.8,777.6,5012.3,773.8z M4989.7,728.6c0,5.3,2.4,9.4,5.6,13.3c7.5-4.3,12.3-8.3,12.3-14.5c0-4.5-2.5-9.6-8.6-9.6
		C4992.9,717.8,4989.7,722.8,4989.7,728.6z"></path>
	<path d="M5067.4,712.4h9.6v66.1h31.7v8h-41.3V712.4z"></path>
	<path d="M5129.8,718.3c0.1,3.3-2.3,5.9-6.2,5.9c-3.4,0-5.8-2.6-5.8-5.9c0-3.4,2.5-6,6.1-6C5127.4,712.3,5129.8,714.9,5129.8,718.3z
		 M5119,786.5v-53.2h9.7v53.2H5119z"></path>
	<path d="M5190.6,733.3c-0.2,3.8-0.4,8.1-0.4,14.6v30.9c0,12.2-2.4,19.7-7.6,24.3c-5.2,4.8-12.6,6.4-19.4,6.4
		c-6.4,0-13.4-1.5-17.7-4.4l2.4-7.4c3.5,2.2,9,4.2,15.6,4.2c9.9,0,17.2-5.2,17.2-18.6v-5.9h-0.2c-3,5-8.7,8.9-16.9,8.9
		c-13.2,0-22.7-11.2-22.7-26c0-18,11.8-28.3,24-28.3c9.2,0,14.3,4.8,16.6,9.2h0.2l0.4-8H5190.6z M5180.6,754.3
		c0-1.6-0.1-3.1-0.5-4.4c-1.8-5.6-6.5-10.2-13.5-10.2c-9.2,0-15.8,7.8-15.8,20.1c0,10.5,5.3,19.1,15.7,19.1c5.9,0,11.3-3.7,13.4-9.9
		c0.6-1.6,0.8-3.5,0.8-5.2V754.3z"></path>
	<path d="M5206.2,708.4h9.7v33.2h0.2c1.5-2.8,4-5.2,6.9-6.8c2.9-1.7,6.3-2.8,9.9-2.8c7.2,0,18.6,4.4,18.6,22.8v31.7h-9.7v-30.6
		c0-8.6-3.2-15.8-12.3-15.8c-6.3,0-11.2,4.4-13,9.7c-0.5,1.3-0.7,2.8-0.7,4.6v32.1h-9.7V708.4z"></path>
	<path d="M5278.5,718v15.3h13.9v7.4h-13.9v28.7c0,6.6,1.9,10.3,7.3,10.3c2.5,0,4.4-0.3,5.6-0.7l0.4,7.3c-1.9,0.8-4.8,1.3-8.6,1.3
		c-4.5,0-8.1-1.4-10.4-4.1c-2.8-2.9-3.7-7.6-3.7-13.9v-29h-8.3v-7.4h8.3v-12.8L5278.5,718z"></path>
	<path d="M5308.1,733.3l7,27.1c1.5,5.9,3,11.4,4,16.9h0.3c1.2-5.4,3-11.1,4.7-16.8l8.7-27.2h8.1l8.3,26.6c2,6.4,3.5,12,4.7,17.4h0.3
		c0.9-5.4,2.3-11,4.1-17.3l7.6-26.7h9.6l-17.2,53.2h-8.8l-8.1-25.4c-1.9-5.9-3.4-11.2-4.7-17.5h-0.2c-1.3,6.4-3,11.9-4.8,17.6
		l-8.6,25.3h-8.8l-16.1-53.2H5308.1z"></path>
	<path d="M5389.5,761.7c0.2,13.1,8.6,18.5,18.3,18.5c6.9,0,11.1-1.2,14.7-2.8l1.7,6.9c-3.4,1.5-9.2,3.3-17.7,3.3
		c-16.4,0-26.2-10.8-26.2-26.8c0-16.1,9.5-28.7,25-28.7c17.4,0,22,15.3,22,25.1c0,2-0.2,3.5-0.3,4.5H5389.5z M5417.8,754.7
		c0.1-6.2-2.5-15.7-13.4-15.7c-9.8,0-14.1,9-14.9,15.7H5417.8z"></path>
	<path d="M5450,718.3c0.1,3.3-2.3,5.9-6.2,5.9c-3.4,0-5.8-2.6-5.8-5.9c0-3.4,2.5-6,6-6C5447.7,712.3,5450,714.9,5450,718.3z
		 M5439.2,786.5v-53.2h9.7v53.2H5439.2z"></path>
	<path d="M5510.8,733.3c-0.2,3.8-0.4,8.1-0.4,14.6v30.9c0,12.2-2.4,19.7-7.6,24.3c-5.2,4.8-12.7,6.4-19.4,6.4
		c-6.4,0-13.4-1.5-17.7-4.4l2.4-7.4c3.5,2.2,9,4.2,15.6,4.2c9.9,0,17.2-5.2,17.2-18.6v-5.9h-0.2c-3,5-8.7,8.9-16.9,8.9
		c-13.2,0-22.7-11.2-22.7-26c0-18,11.8-28.3,24-28.3c9.2,0,14.3,4.8,16.6,9.2h0.2l0.4-8H5510.8z M5500.8,754.3
		c0-1.6-0.1-3.1-0.5-4.4c-1.8-5.6-6.5-10.2-13.5-10.2c-9.2,0-15.8,7.8-15.8,20.1c0,10.5,5.3,19.1,15.7,19.1c5.9,0,11.3-3.7,13.4-9.9
		c0.5-1.6,0.8-3.5,0.8-5.2V754.3z"></path>
	<path d="M5526.4,708.4h9.7v33.2h0.2c1.5-2.8,4-5.2,6.9-6.8c2.9-1.7,6.3-2.8,9.9-2.8c7.2,0,18.6,4.4,18.6,22.8v31.7h-9.7v-30.6
		c0-8.6-3.2-15.8-12.3-15.8c-6.3,0-11.2,4.4-13,9.7c-0.5,1.3-0.7,2.8-0.7,4.6v32.1h-9.7V708.4z"></path>
	<path d="M5598.7,718v15.3h13.9v7.4h-13.9v28.7c0,6.6,1.9,10.3,7.3,10.3c2.5,0,4.4-0.3,5.6-0.7l0.4,7.3c-1.9,0.8-4.8,1.3-8.6,1.3
		c-4.5,0-8.1-1.4-10.5-4.1c-2.8-2.9-3.7-7.6-3.7-13.9v-29h-8.3v-7.4h8.3v-12.8L5598.7,718z"></path>
</g>
<g>
	<path d="M2190.7,430.1c0,61.7,0,123.3,0,185c-149.2,0-298.5,0-447.8,0c0-149.2,0-298.5,0-447.8c54.6,0,109.3,0,164,0
		c-1,0.2-2,0.5-3,0.6c-17.1,1.6-31.4,8.8-41.9,22.2c-13.7,17.5-26.9,35.4-40.3,53.2c-5.5,7.3-4.3,12.9,3.9,17.4
		c32.4,17.7,64.8,35.4,97.2,53c7.7,4.2,11.4,3.3,16.6-3.9c12.4-17.4,24.9-34.8,37.3-52.2c0.7-1,1.5-1.9,2.5-3.2
		c7,10.3,13.8,20.1,20.7,30.2c-1.5,0.8-2.4,1.4-3.5,1.9c-7.8,3.9-15.6,7.8-23.4,11.7c-4,2-6.3,5.3-5.7,9.9c0.6,4.6,3.7,7.1,8,8.1
		c2.7,0.6,5.4,1.1,8.1,1.6c12,2.4,23.9,4.9,35.9,7.2c5.7,1.1,9.9-0.6,11.9-4.8c2.8-5.7-0.6-11.8-7.6-13.3
		c-5.8-1.3-11.7-2.4-18.7-3.9c3.5-1.8,6-3,8.4-4.2c10.9-5.4,12-9.8,5.2-19.7c-13.3-19.3-26.5-38.6-39.8-57.9
		c-8.1-11.8-16.4-23.5-24.7-35.4c0.6,0,1.3-0.1,1.9-0.1c24.3,0,48.6,0,72.9,0c11.5,0,20.3,5,26.6,14.6c7.8,11.9,15.7,23.7,23.7,35.6
		c4,6,8.1,7,14.6,3.9c4.1-2,8.2-4,13.2-6.5c-4.3,10.4-8.2,19.7-12.1,29.1c-8,19.2-16,38.3-24,57.5c-3,7.2-0.2,13.4,6.4,14.6
		c4.7,0.8,8.4-1.7,10.8-7.5c9.4-22.5,18.7-45,28.1-67.6c5.7-13.7,11.5-27.3,17.1-41c2-4.9,1.3-8.8-2-11.6c-3.5-3.1-7.4-2.9-11.4-1
		c-2,1-3.9,2-5.8,2.9c-7.6,3.8-15.2,7.6-23,11.4c-7-10.5-13.8-20.7-20.5-30.8c-4.4-6.7-9.7-12.5-16.9-16c-5.4-2.6-11.3-4.2-17.1-6.3
		c51.2,0,102.4,0,153.7,0c0,84.4,0,168.8,0,253.2c-1.6-4.6-2.7-9.5-5-13.8c-13.8-25.1-27.9-50-41.9-75c-3.6-6.4-8.7-7.7-15-3.9
		c-6.9,4-13.7,8.2-20.6,12.3c-7.7,4.6-15.5,9.2-23.2,13.9c-5.7,3.5-7.4,8.8-4.5,13.6c2.9,4.7,8.3,5.6,14.2,2.3
		c3.1-1.8,6.2-3.7,9.4-5.6c9.1-5.4,18.1-10.9,27.2-16.3c0.5,0.6,0.8,0.9,1.1,1.3c12.3,21.9,24.8,43.7,36.9,65.8
		c8,14.7-2,31.3-18.8,31.5c-15,0.2-30,0.1-45-0.1c-1.7,0-3.9-1.2-4.9-2.5c-7.6-9.8-14.9-19.7-22.4-29.6c-4-5.3-9.6-6.4-14-3.1
		c-4.3,3.3-4.8,8.7-1,14c4.3,5.9,8.7,11.6,13.1,17.5c0.8,1.1,1.5,2.2,2.5,3.7c-1.4,0.1-2,0.1-2.5,0.1c-14.3,0-28.5-0.1-42.8,0
		c-6,0-10.1,3.9-10.2,9.2c-0.1,5.2,4.1,9,10.1,9.3c1.3,0.1,2.6,0,3.9,0c35.1,0,70.1,0,105.2,0c1.5,0,3.1,0,5.1,0
		c-0.5,1.1-0.6,1.6-0.9,2.1c-16.6,24-33.2,48.1-50,72c-7.5,10.6-18,17.2-30.9,18.4c-10.4,1-20.9,0.5-31.4,0.7
		c-7.4,0.1-10.9,3.7-11.1,11c-0.1,3.3,0,6.5,0,11c-18.3-20.6-35.7-40.2-53.3-59.9c13.4-18.8,26.7-37.3,40-55.9
		c1.2-1.6,2.4-3.3,3.1-5.2c1.6-3.9,0.8-7.5-2.4-10.3c-3.2-2.8-6.9-3.3-10.5-1.1c-1.9,1.2-3.5,3.1-4.8,5c-14.3,20-28.6,40-42.9,60
		c-5.2,7.3-5,10.2,0.9,16.9c14,15.8,28,31.5,42,47.3c9.8,11,19.5,22,29.3,32.9c3,3.4,6.7,5.2,11.3,3.4c4.4-1.7,5.8-5.3,5.8-9.8
		c0-4.9,0-9.9,0-14.8c0-3.9,0-7.7,0-11.9c5.3,0,9.8,0.1,14.2,0c4.2-0.1,8.5-0.1,12.6-0.8c19.5-3,34.4-13.1,45.5-29.3
		c20.6-29.9,41.1-60,62.2-89.6C2182.5,448.8,2189.1,440.9,2190.7,430.1z M1776.5,317.4c0.1-0.3,0.3-0.7,0.4-1c1.6,0,3.2,0,4.7,0
		c29.5,0,59.1,0,88.6,0c2,0,4.1-0.2,6-0.6c4.2-0.9,6.5-3.8,6.9-7.9c0.5-4.2-1.5-7.5-5.3-9.2c-1.9-0.9-4.2-1-6.4-1
		c-38.7-0.1-77.4,0-116.1,0c-4.8,0-9,1.1-11,6.1c-1.9,4.9,0.4,8.4,3.7,11.6c9.3,9.2,18.4,18.6,27.9,27.7c2.4,2.4,2.6,4.1,1.1,7
		c-9.6,18.9-19.1,37.9-28.5,56.9c-7.7,15.6-6,30.4,4.6,44.1c2.9,3.8,6,7.5,8.8,11.4c19.6,28.2,39.1,56.4,58.6,84.6
		c13.8,19.9,32.6,30,56.9,30c13.4,0,26.8,0,40.2,0c9.5,0,12.4-3,12.4-12.6c0-35.1,0-70.1,0-105.2c0-9.5-3.1-12.5-12.6-12.5
		c-33.2,0-66.3,0-99.5,0c-11.3,0-22.7-0.1-34,0c-9.1,0.1-17.4-6.3-20.2-14.6c-2.1-6.3-0.8-12.3,2.1-18.1
		c10.6-21,21.1-42.1,31.6-63.1c3.4-6.9,3-9.7-2.4-15.1C1788.9,329.7,1782.7,323.6,1776.5,317.4z M2004.6,368.8c0-7.1,0-14.3,0-21.4
		c0-1.9-0.2-3.8-0.6-5.6c-1-4.1-4.9-7-9-6.8c-4.2,0.1-7.7,3.1-8.6,7.3c-0.3,1.4-0.5,2.9-0.5,4.3c0,14.1,0,28.2,0,42.3
		c-0.1,22.6,16.5,37.6,35.1,39c18.3,1.4,37.7-13.5,38.8-31.9c1-15.9,0.6-32,0.8-47.9c0.1-8.6-3.3-13.1-9.4-13.1
		c-6.1,0-9.4,4.5-9.4,13.1c0,14.1,0.2,28.2-0.1,42.3c-0.2,11.2-8.1,18.9-18.6,18.9c-10.5-0.1-18.2-8-18.4-19.1
		C2004.5,383.1,2004.6,375.9,2004.6,368.8z M1837.1,417.3c-0.2,5.2,2.3,8.8,6.1,10.1c4.1,1.4,8.5,0.1,10.6-3.8
		c1.9-3.5,3.3-7.4,4.7-11.2c0.8-2.2,1.9-3.2,4.4-3.1c4.6,0.2,9.3,0,14,0.1c3.9,0.1,8.6-1,11.4,0.8c2.6,1.7,3.1,6.6,4.5,10.1
		c0.6,1.3,1.1,2.7,1.9,3.9c2.2,2.9,5.1,4.2,8.8,3.6c6.7-1.1,9.3-6.9,6.5-14.5c-8.7-23.3-17.4-46.5-26.1-69.8
		c-2.2-5.8-4.7-7.8-9.7-7.8c-4.9,0-7.5,2.1-9.7,7.9c-8.7,23.1-17.3,46.2-26,69.4C1837.9,414.7,1837.4,416.5,1837.1,417.3z
		 M1948.7,409.4c0-2.2,0-3.8,0-5.4c0-19.1,0-38.1,0-57.2c0-3.7-0.5-7.3-3.7-9.8c-2.9-2.2-6.1-2.7-9.4-1.2c-4.5,2-5.6,6-5.6,10.5
		c0,23.4-0.1,46.8,0,70.3c0,7.9,3.6,11.4,11.5,11.5c10.9,0.1,21.8,0,32.7,0c1.6,0,3.2-0.2,4.7-0.6c4-1,6.6-4.4,6.7-8.6
		c0.1-4.3-2.6-8-6.8-8.9c-2-0.4-4-0.6-6-0.6C1965,409.3,1957.2,409.4,1948.7,409.4z" class="st0"></path>
	<path d="M2037.1,167.3c5.7,2,11.6,3.6,17.1,6.3c7.2,3.5,12.5,9.4,16.9,16c6.7,10.2,13.5,20.3,20.5,30.8c7.8-3.9,15.4-7.6,23-11.4
		c2-1,3.9-2,5.8-2.9c4-2,7.9-2.1,11.4,1c3.2,2.8,4,6.7,2,11.6c-5.6,13.7-11.4,27.3-17.1,41c-9.4,22.5-18.7,45.1-28.1,67.6
		c-2.4,5.8-6.1,8.3-10.8,7.5c-6.6-1.2-9.4-7.3-6.4-14.6c8-19.2,16-38.3,24-57.5c3.9-9.3,7.8-18.7,12.1-29.1c-5,2.5-9.1,4.5-13.2,6.5
		c-6.4,3.1-10.6,2-14.6-3.9c-8-11.8-15.9-23.6-23.7-35.6c-6.3-9.7-15.1-14.6-26.6-14.6c-24.3,0-48.6,0-72.9,0
		c-0.7,0-1.4,0.1-1.9,0.1c8.3,11.9,16.5,23.6,24.7,35.4c13.3,19.3,26.5,38.6,39.8,57.9c6.8,9.9,5.6,14.2-5.2,19.7
		c-2.4,1.2-4.9,2.4-8.4,4.2c7,1.4,12.9,2.5,18.7,3.9c7,1.6,10.3,7.6,7.6,13.3c-2,4.2-6.2,5.9-11.9,4.8c-12-2.4-23.9-4.8-35.9-7.2
		c-2.7-0.5-5.4-1-8.1-1.6c-4.4-1-7.4-3.5-8-8.1c-0.6-4.6,1.7-7.8,5.7-9.9c7.8-3.9,15.6-7.8,23.4-11.7c1-0.5,2-1.1,3.5-1.9
		c-6.9-10.1-13.7-19.9-20.7-30.2c-1,1.2-1.8,2.2-2.5,3.2c-12.4,17.4-24.9,34.8-37.3,52.2c-5.2,7.2-8.9,8.1-16.6,3.9
		c-32.4-17.7-64.8-35.3-97.2-53c-8.1-4.4-9.4-10-3.9-17.4c13.4-17.8,26.5-35.7,40.3-53.2c10.6-13.4,24.9-20.6,41.9-22.2
		c1-0.1,2-0.4,3-0.6C1950.3,167.3,1993.7,167.3,2037.1,167.3z M1841.5,248.1c28.7,15.7,57.1,31.1,85.7,46.8
		c13.2-18.5,26.3-36.8,39.3-55.2c0.6-0.8,0.4-2.8-0.2-3.8c-7.4-11-14.6-22.1-22.6-32.6c-16.6-22-48.9-23-66.8-2
		c-8.7,10.2-16.2,21.2-24.3,31.9C1849,238.1,1845.4,242.9,1841.5,248.1z"></path>
	<path d="M2190.7,430.1c-1.7,10.7-8.3,18.7-14.4,27.3c-21.1,29.6-41.6,59.6-62.2,89.6c-11.1,16.1-26,26.3-45.5,29.3
		c-4.1,0.6-8.4,0.6-12.6,0.8c-4.5,0.1-9,0-14.2,0c0,4.2,0,8,0,11.9c0,4.9,0,9.9,0,14.8c0,4.4-1.4,8-5.8,9.8c-4.6,1.8-8.3,0-11.3-3.4
		c-9.8-10.9-19.5-21.9-29.3-32.9c-14-15.8-28-31.5-42-47.3c-5.9-6.6-6.1-9.6-0.9-16.9c14.3-20,28.6-40,42.9-60
		c1.3-1.9,2.9-3.8,4.8-5c3.6-2.2,7.3-1.7,10.5,1.1c3.2,2.8,4,6.4,2.4,10.3c-0.8,1.9-2,3.6-3.1,5.2c-13.3,18.6-26.5,37.1-40,55.9
		c17.5,19.7,35,39.4,53.3,59.9c0-4.5-0.1-7.7,0-11c0.1-7.4,3.7-10.9,11.1-11c10.5-0.2,21,0.3,31.4-0.7c12.9-1.2,23.4-7.8,30.9-18.4
		c16.8-23.9,33.4-48,50-72c0.3-0.4,0.4-1,0.9-2.1c-2,0-3.5,0-5.1,0c-35.1,0-70.1,0-105.2,0c-1.3,0-2.6,0-3.9,0
		c-6-0.3-10.1-4.1-10.1-9.3c0.1-5.3,4.2-9.1,10.2-9.2c14.3-0.1,28.5,0,42.8,0c0.6,0,1.2-0.1,2.5-0.1c-1-1.5-1.7-2.6-2.5-3.7
		c-4.3-5.8-8.8-11.6-13.1-17.5c-3.8-5.2-3.3-10.7,1-14c4.4-3.4,10-2.2,14,3.1c7.5,9.8,14.8,19.8,22.4,29.6c1,1.3,3.2,2.5,4.9,2.5
		c15,0.2,30,0.2,45,0.1c16.8-0.2,26.8-16.8,18.8-31.5c-12-22.1-24.6-43.9-36.9-65.8c-0.2-0.4-0.5-0.7-1.1-1.3
		c-9.1,5.4-18.1,10.9-27.2,16.3c-3.1,1.9-6.2,3.8-9.4,5.6c-5.8,3.4-11.3,2.5-14.2-2.3c-2.9-4.8-1.2-10.1,4.5-13.6
		c7.7-4.7,15.4-9.3,23.2-13.9c6.9-4.1,13.7-8.3,20.6-12.3c6.4-3.7,11.4-2.5,15,3.9c14.1,24.9,28.1,49.9,41.9,75
		c2.3,4.2,3.4,9.2,5,13.8C2190.7,423.7,2190.7,426.9,2190.7,430.1z"></path>
	<path d="M1776.5,317.4c6.2,6.1,12.4,12.2,18.5,18.4c5.4,5.4,5.8,8.2,2.4,15.1c-10.5,21-21,42.1-31.6,63.1
		c-2.9,5.8-4.2,11.8-2.1,18.1c2.7,8.3,11,14.7,20.2,14.6c11.3-0.1,22.7,0,34,0c33.2,0,66.3,0,99.5,0c9.5,0,12.5,3,12.6,12.5
		c0,35.1,0,70.1,0,105.2c0,9.6-2.9,12.6-12.4,12.6c-13.4,0-26.8,0-40.2,0c-24.2,0-43.1-10.1-56.9-30c-19.5-28.2-39-56.4-58.6-84.6
		c-2.7-3.9-5.8-7.6-8.8-11.4c-10.6-13.8-12.2-28.5-4.6-44.1c9.4-19,18.9-38,28.5-56.9c1.5-3,1.4-4.7-1.1-7
		c-9.4-9.1-18.6-18.5-27.9-27.7c-3.3-3.3-5.6-6.8-3.7-11.6c2-5,6.2-6.1,11-6.1c38.7,0,77.4,0,116.1,0c2.1,0,4.5,0.2,6.4,1
		c3.8,1.7,5.8,5,5.3,9.2c-0.5,4.1-2.7,7-6.9,7.9c-2,0.4-4,0.6-6,0.6c-29.5,0-59.1,0-88.6,0c-1.6,0-3.2,0-4.7,0
		C1776.8,316.7,1776.7,317.1,1776.5,317.4z M1787.2,465.5c0.5,1,0.6,1.4,0.8,1.8c16.5,23.9,33,47.8,49.7,71.7
		c6.8,9.7,16.1,16.8,27.7,18.1c15.1,1.7,30.3,1.4,45.7,1.9c0-31.7,0-62.5,0-93.5C1869.8,465.5,1828.8,465.5,1787.2,465.5z"></path>
	<path d="M2004.6,368.8c0,7.1-0.1,14.3,0,21.4c0.2,11.1,7.9,19.1,18.4,19.1c10.6,0.1,18.4-7.7,18.6-18.9c0.2-14.1,0.1-28.2,0.1-42.3
		c0-8.6,3.2-13.1,9.4-13.1c6.1,0,9.5,4.5,9.4,13.1c-0.2,16,0.2,32-0.8,47.9c-1.1,18.4-20.4,33.2-38.8,31.9
		c-18.5-1.4-35.1-16.4-35.1-39c0-14.1,0-28.2,0-42.3c0-1.4,0.2-2.9,0.5-4.3c0.9-4.2,4.5-7.2,8.6-7.3c4.1-0.1,8,2.7,9,6.8
		c0.5,1.8,0.6,3.7,0.6,5.6C2004.7,354.6,2004.6,361.7,2004.6,368.8z"></path>
	<path d="M1837.1,417.3c0.3-0.9,0.7-2.7,1.4-4.4c8.6-23.1,17.3-46.2,26-69.4c2.2-5.8,4.8-7.8,9.7-7.9c4.9,0,7.5,2,9.7,7.8
		c8.7,23.2,17.5,46.5,26.1,69.8c2.9,7.7,0.2,13.4-6.5,14.5c-3.7,0.6-6.6-0.7-8.8-3.6c-0.8-1.1-1.4-2.6-1.9-3.9
		c-1.5-3.5-2-8.3-4.5-10.1c-2.8-1.8-7.5-0.8-11.4-0.8c-4.7-0.1-9.3,0.1-14-0.1c-2.5-0.1-3.6,0.9-4.4,3.1c-1.4,3.8-2.8,7.7-4.7,11.2
		c-2.1,3.9-6.4,5.1-10.6,3.8C1839.4,426.2,1836.9,422.5,1837.1,417.3z M1866.7,390.6c5.2,0,9.8,0,14.8,0c-2.4-6.5-4.7-12.7-7.4-19.7
		C1871.5,377.9,1869.2,384.1,1866.7,390.6z"></path>
	<path d="M1948.7,409.4c8.5,0,16.3,0,24.1,0c2,0,4.1,0.1,6,0.6c4.2,0.9,6.9,4.6,6.8,8.9c-0.1,4.1-2.7,7.6-6.7,8.6
		c-1.5,0.4-3.2,0.6-4.7,0.6c-10.9,0-21.8,0.1-32.7,0c-7.9-0.1-11.5-3.6-11.5-11.5c-0.1-23.4,0-46.8,0-70.3c0-4.5,1.1-8.4,5.6-10.5
		c3.3-1.5,6.5-1,9.4,1.2c3.2,2.5,3.7,6,3.7,9.8c0,19.1,0,38.1,0,57.2C1948.7,405.6,1948.7,407.2,1948.7,409.4z"></path>
	<path d="M1841.5,248.1c3.9-5.2,7.5-10,11.2-14.9c8.1-10.7,15.7-21.7,24.3-31.9c17.9-21,50.2-19.9,66.8,2
		c8,10.5,15.2,21.7,22.6,32.6c0.6,0.9,0.8,2.9,0.2,3.8c-13,18.4-26,36.7-39.3,55.2C1898.6,279.3,1870.2,263.8,1841.5,248.1z" class="st0"></path>
	<path d="M1787.2,465.5c41.6,0,82.7,0,124,0c0,31,0,61.7,0,93.5c-15.4-0.5-30.6-0.2-45.7-1.9
		c-11.6-1.3-21-8.4-27.7-18.1c-16.7-23.8-33.1-47.8-49.7-71.7C1787.8,466.9,1787.7,466.5,1787.2,465.5z" class="st0"></path>
	<path d="M1866.7,390.6c2.5-6.5,4.8-12.7,7.4-19.7c2.6,7.1,5,13.2,7.4,19.7C1876.5,390.6,1872,390.6,1866.7,390.6z" class="st0"></path>
</g>
<path d="M3618.7,180.5h-45.8c0,0,5.6,33.5-37.1,50.5c-42.7,17.1-104.1,5.9-104.1,5.9l-24,46.3c0,0,63.7,27.6,63.3,100.8
	c-0.3,73.2-52.8,105.4-52.8,105.4l20.4,61.4c0,0,44.6-28.6,89.3-13.1c44.6,15.4,90.8,58.1,90.8,58.1v-24.9v-24.9V297.1
	c0,0-16.9,65.6-18.3,143.8c-0.7,44.3-1.1,74.5-1.2,92.3c-28.9-21.2-79.6-68.3-76.3-135.6c4.6-93.9,95.7-164.1,95.7-164.1
	s91.1,70.2,95.7,164.1c3.3,68.1-48.5,115.4-77.2,136.3v46.4c17.6-13.8,45.2-33.2,72.3-42.6c44.6-15.4,89.3,13.1,89.3,13.1l20.4-61.4
	c0,0-52.5-32.2-52.9-105.4c-0.3-73.2,63.3-100.8,63.3-100.8l-24-46.3c0,0-61.4,11.2-104.1-5.9c-42.7-17.1-37.1-50.5-37.1-50.5
	H3618.7L3618.7,180.5z" class="st1"></path>
</svg>
